<svg width="32" height="36" viewBox="0 0 32 36" fill="none" xmlns="http://www.w3.org/2000/svg">
  <path d="M19.9805 13.6484C23.4961 17.1641 23.4375 22.7891 19.9805 26.1875C19.9805 26.2461 19.9805 26.2461 19.9805 26.2461L16.0547 30.1719C12.5977 33.6289 6.91406 33.6289 3.45703 30.1719C0 26.7148 0 21.0312 3.45703 17.5742L5.625 15.4062C6.21094 14.8203 7.20703 15.2305 7.20703 16.0508C7.26562 17.0469 7.44141 18.1016 7.79297 19.0977C7.91016 19.4492 7.85156 19.8594 7.55859 20.0938L6.79688 20.8555C5.15625 22.4961 5.09766 25.1914 6.73828 26.832C8.37891 28.5312 11.0742 28.5312 12.7148 26.832L16.6992 22.9062C18.3398 21.2656 18.3398 18.6289 16.6992 16.9297C16.4648 16.7539 16.2305 16.5781 16.0547 16.4609C15.8203 16.2852 15.6445 16.0508 15.6445 15.6992C15.6445 15.1133 15.8789 14.4688 16.3477 13.9414L17.5781 12.7109C17.9297 12.418 18.3984 12.3594 18.8086 12.6523C19.2188 12.9453 19.6289 13.2969 19.9805 13.6484ZM28.2422 5.38672C31.6992 8.84375 31.6992 14.5273 28.2422 17.9844L26.0742 20.1523C25.4883 20.7383 24.4922 20.3281 24.4922 19.5078C24.4336 18.5117 24.2578 17.457 23.9062 16.4609C23.7891 16.1094 23.8477 15.6992 24.1406 15.4648L24.9023 14.7031C26.543 13.0625 26.6016 10.3672 24.9609 8.72656C23.3203 7.02734 20.625 7.02734 18.9844 8.72656L15 12.6523C13.3594 14.293 13.3594 16.9297 15 18.6289C15.2344 18.8047 15.4688 18.9805 15.6445 19.0977C15.8789 19.2734 16.0547 19.5078 16.0547 19.8594C16.0547 20.4453 15.8203 21.0898 15.3516 21.6172L14.1211 22.8477C13.7695 23.1406 13.3008 23.1992 12.8906 22.9062C12.4805 22.6133 12.0703 22.2617 11.7188 21.9102C8.20312 18.3945 8.26172 12.7695 11.7188 9.37109C11.7188 9.3125 11.7188 9.3125 11.7188 9.3125L15.6445 5.38672C19.1016 1.92969 24.7852 1.92969 28.2422 5.38672Z" fill="#2563EB"/>
</svg>
