<svg width="76" height="85" viewBox="0 0 76 85" fill="none" xmlns="http://www.w3.org/2000/svg">
<g clip-path="url(#clip0_1_162)">
<mask id="mask0_1_162" style="mask-type:luminance" maskUnits="userSpaceOnUse" x="0" y="0" width="76" height="85">
<path d="M76 0H0V85H76V0Z" fill="white"/>
</mask>
<g mask="url(#mask0_1_162)">
<path d="M1.29104e-06 25.8078V59.192C-0.00084628 60.7855 0.415645 62.3512 1.20721 63.7294C1.99878 65.1079 3.13724 66.2504 4.50707 67.0408L33.5621 83.8091C34.9136 84.5892 36.4434 84.9998 38 84.9998C39.5566 84.9998 41.0864 84.5892 42.4379 83.8091L71.4943 67.0408C72.8636 66.25 74.0016 65.1075 74.7928 63.729C75.5843 62.3507 76.0007 60.7855 76 59.192V25.8078C76.0002 24.2145 75.5836 22.6496 74.7924 21.2715C74.0012 19.8934 72.8632 18.7511 71.4943 17.9603L42.4379 1.19072C41.0864 0.410436 39.5566 0 38 0C36.4434 0 34.9136 0.410436 33.5621 1.19072L4.50707 17.9603C3.13753 18.7507 1.99927 19.8929 1.20773 21.2711C0.416197 22.6493 -0.000467841 24.2145 1.29104e-06 25.8078Z" fill="url(#paint0_linear_1_162)"/>
<mask id="mask1_1_162" style="mask-type:alpha" maskUnits="userSpaceOnUse" x="0" y="0" width="77" height="86">
<path d="M76.0001 59.1925V25.8083C76.001 24.2145 75.5844 22.6491 74.7929 21.2707C74.0013 19.8922 72.8629 18.7498 71.4931 17.9594L42.438 1.19121C41.0865 0.410921 39.5568 0.000488005 38.0001 0.000488281C36.4435 0.000488558 34.9137 0.410921 33.5623 1.19121L4.50592 17.9595C3.13652 18.7502 1.99849 19.8927 1.2072 21.2711C0.415906 22.6495 -0.000497712 24.2148 0.000208799 25.8083L0.000214543 59.1925C-0.00011322 60.7856 0.416463 62.3505 1.20773 63.7286C1.999 65.1068 3.13684 66.2491 4.50592 67.0399L33.5623 83.8094C34.9137 84.5897 36.4435 85.0003 38.0001 85.0003C39.5568 85.0003 41.0865 84.5897 42.438 83.8094L71.4931 67.0399C72.8626 66.2495 74.0008 65.1073 74.7925 63.729C75.5839 62.351 76.0006 60.7858 76.0001 59.1925Z" fill="url(#paint1_linear_1_162)"/>
</mask>
<g mask="url(#mask1_1_162)">
<mask id="mask2_1_162" style="mask-type:alpha" maskUnits="userSpaceOnUse" x="0" y="0" width="76" height="86">
<path d="M-3.41883e-06 59.1924L-1.49915e-06 25.808C-0.000848978 24.2144 0.415643 22.649 1.20721 21.2705C1.99877 19.8921 3.13724 18.7497 4.50707 17.9593L33.5621 1.19109C34.9136 0.410798 36.4433 0.000365383 38 0.000366211C39.5566 0.000367039 41.0863 0.4108 42.4378 1.19109L71.4942 17.9593C72.8636 18.7501 74.0016 19.8926 74.793 21.271C75.5842 22.6494 76.0006 24.2147 76 25.8082V59.1924C76.0002 60.7855 75.5835 62.3504 74.7923 63.7285C74.0011 65.1068 72.8634 66.249 71.4942 67.0398L42.4378 83.8093C41.0863 84.5896 39.5566 85.0002 38 85.0002C36.4433 85.0002 34.9136 84.5896 33.5621 83.8093L4.50707 67.0398C3.13753 66.2495 1.99927 65.1072 1.20773 63.7289C0.416193 62.3509 -0.000472643 60.7857 -3.41883e-06 59.1924Z" fill="url(#paint2_linear_1_162)"/>
</mask>
<g mask="url(#mask2_1_162)">
<mask id="mask3_1_162" style="mask-type:alpha" maskUnits="userSpaceOnUse" x="0" y="0" width="77" height="85">
<path d="M76.0001 25.8081V59.1925C76.001 60.786 75.5846 62.3515 74.793 63.73C74.0013 65.1085 72.8629 66.2507 71.4931 67.0411L42.438 83.8094C41.0865 84.5897 39.557 85.0001 38.0001 85.0001C36.4435 85.0001 34.914 84.5897 33.5623 83.8094L4.506 67.0411C3.13662 66.2505 1.99857 65.1078 1.20728 63.7295C0.415988 62.351 -0.00041708 60.7858 0.000288331 59.1925L0.000271038 25.8081C-5.78245e-05 24.215 0.416517 22.6501 1.20778 21.272C1.99905 19.8938 3.13689 18.7515 4.50597 17.9608L33.5623 1.19115C34.9138 0.410863 36.4435 0.000427338 38.0001 0.000427246C39.5568 0.000427154 41.0865 0.410863 42.438 1.19115L71.4931 17.9608C72.8627 18.7511 74.0009 19.8933 74.7925 21.2715C75.584 22.6497 76.0006 24.2148 76.0001 25.8081Z" fill="url(#paint3_linear_1_162)"/>
</mask>
<g mask="url(#mask3_1_162)">
<mask id="mask4_1_162" style="mask-type:alpha" maskUnits="userSpaceOnUse" x="0" y="0" width="77" height="85">
<path d="M0.00020162 25.8079L0.000195841 59.1921C-0.000652004 60.7858 0.415839 62.3512 1.2074 63.7297C1.99897 65.108 3.13744 66.2505 4.50727 67.0409L33.5623 83.8092C34.9137 84.5895 36.4435 84.9998 38.0001 84.9998C39.5568 84.9998 41.0865 84.5895 42.438 83.8092L71.4944 67.0409C72.8637 66.25 74.0017 65.1076 74.7932 63.7293C75.5844 62.3508 76.0008 60.7856 76.0001 59.1921V25.8079C76.0003 24.2148 75.5839 22.6498 74.7925 21.2717C74.0013 19.8935 72.8635 18.7512 71.4944 17.9605L42.438 1.19085C41.0865 0.410557 39.5568 0.000122345 38.0001 0.00012207C36.4435 0.000121795 34.9137 0.410557 33.5623 1.19085L4.50727 17.9604C3.13773 18.7508 1.99948 19.893 1.20794 21.2712C0.416398 22.6494 -0.000267236 24.2146 0.00020162 25.8079Z" fill="url(#paint4_linear_1_162)"/>
</mask>
<g mask="url(#mask4_1_162)">
<mask id="mask5_1_162" style="mask-type:alpha" maskUnits="userSpaceOnUse" x="0" y="0" width="77" height="85">
<path d="M0.00032369 25.8079L0.000317912 59.1921C-0.000529934 60.7858 0.415963 62.3512 1.20753 63.7297C1.99909 65.108 3.13756 66.2505 4.50739 67.0409L33.5623 83.8092C34.9138 84.5895 36.4436 84.9998 38.0002 84.9998C39.5568 84.9998 41.0866 84.5895 42.4381 83.8092L71.4945 67.0409C72.8638 66.25 74.002 65.1076 74.7932 63.7293C75.5845 62.3508 76.0009 60.7856 76.0002 59.1921V25.8079C76.0006 24.2148 75.584 22.6498 74.7928 21.2717C74.0013 19.8935 72.8636 18.7512 71.4945 17.9605L42.4381 1.19085C41.0866 0.410557 39.5568 0.000122345 38.0002 0.00012207C36.4436 0.000121795 34.9138 0.410557 33.5623 1.19085L4.50739 17.9604C3.13785 18.7508 1.9996 19.893 1.20806 21.2712C0.41652 22.6494 -0.000145166 24.2146 0.00032369 25.8079Z" fill="url(#paint5_linear_1_162)"/>
</mask>
<g mask="url(#mask5_1_162)">
<path opacity="0.35" d="M0.00032369 25.8079L0.000317912 59.1921C-0.000529934 60.7858 0.415961 62.3512 1.20753 63.7297C1.99909 65.108 3.13756 66.2505 4.50739 67.0409L33.5623 83.8092C34.9138 84.5895 36.4436 84.9998 38.0002 84.9998C39.5568 84.9998 41.0866 84.5895 42.4381 83.8092L71.4945 67.0409C72.8638 66.25 74.002 65.1076 74.7932 63.7293C75.5845 62.3508 76.0009 60.7856 76.0002 59.1921V25.8079C76.0006 24.2148 75.584 22.6498 74.7928 21.2717C74.0013 19.8935 72.8636 18.7512 71.4945 17.9605L42.4381 1.19085C41.0866 0.410557 39.5568 0.000122345 38.0002 0.00012207C36.4436 0.000121795 34.9138 0.410557 33.5623 1.19085L4.50739 17.9604C3.13785 18.7508 1.9996 19.893 1.20806 21.2712C0.41652 22.6494 -0.000145166 24.2146 0.00032369 25.8079Z" fill="black"/>
</g>
</g>
</g>
</g>
</g>
<path d="M10.1786 30.2502V54.7498C10.178 55.9195 10.4829 57.0681 11.0625 58.0799C11.642 59.0915 12.4755 59.9298 13.4784 60.51L34.7508 72.8155C35.7404 73.3884 36.8602 73.6895 38 73.6895C39.1398 73.6895 40.2596 73.3884 41.2492 72.8155L62.5227 60.51C63.5251 59.9296 64.3584 59.091 64.9377 58.0795C65.517 57.0679 65.8219 55.9193 65.8214 54.7498V30.2502C65.8217 29.081 65.5168 27.9326 64.9373 26.921C64.358 25.9097 63.5249 25.0713 62.5227 24.491L41.2492 12.1843C40.2596 11.6117 39.1398 11.3105 38 11.3105C36.8602 11.3105 35.7404 11.6117 34.7508 12.1843L13.4784 24.491C12.4757 25.0711 11.6424 25.9095 11.0628 26.9208C10.4833 27.9321 10.1783 29.0807 10.1786 30.2502Z" fill="url(#paint6_linear_1_162)"/>
<path d="M36.3943 23.9862L22.9043 31.8318C21.8975 32.4184 21.2733 33.5119 21.2733 34.6928V50.3097C21.2733 51.4881 21.8975 52.5844 22.9043 53.1709L36.3943 61.0165C36.8826 61.3008 37.4388 61.4495 38 61.4495C38.5639 61.4495 39.1174 61.2982 39.6057 61.0165L53.0957 53.1709C54.1025 52.5844 54.7268 51.4906 54.7268 50.3097V34.6928C54.7268 33.5147 54.1025 32.4184 53.0957 31.8318L39.6057 23.9862C39.1174 23.7017 38.5612 23.5532 38 23.5532C37.4363 23.5532 36.8826 23.7017 36.3943 23.9862Z" fill="url(#paint7_linear_1_162)"/>
<path d="M38 24.5444C38.3927 24.5444 38.7801 24.6495 39.1224 24.8467L52.6126 32.6923C53.3172 33.1022 53.7526 33.8681 53.7526 34.6928V50.3072C53.7526 51.1321 53.3172 51.898 52.6126 52.3051L39.1224 60.1507C38.7826 60.3479 38.3927 60.453 38 60.453C37.6073 60.453 37.2196 60.3479 36.8774 60.1507L23.3874 52.3051C22.6851 51.898 22.2473 51.1321 22.2473 50.3072V34.6928C22.2473 33.8681 22.6851 33.1022 23.3874 32.6923L36.8774 24.8467C37.2172 24.6495 37.6073 24.5444 38 24.5444ZM38 22.6209C37.2902 22.6209 36.5779 22.8079 35.9387 23.1794L22.4486 31.0222C21.155 31.7754 20.3571 33.1765 20.3571 34.6928V50.3072C20.3571 51.8237 21.155 53.2246 22.4486 53.9777L35.9387 61.8233C36.5779 62.1949 37.2877 62.3792 38 62.3792C38.7098 62.3792 39.4221 62.1949 40.0613 61.8233L53.5513 53.9777C54.8449 53.2246 55.6429 51.8262 55.6429 50.3072V34.6928C55.6429 33.1765 54.8449 31.7754 53.5513 31.0222L40.0588 23.1794C39.4221 22.8079 38.7098 22.6209 38 22.6209Z" fill="black"/>
<path d="M32.9589 50.1943H35.7953V32.8792H32.9589V50.1943ZM44.9714 37.3618H41.4379L37.1995 43.066V44.4927L41.4404 50.1893H44.9714L40.026 43.778L44.9714 37.3618Z" fill="black"/>
</g>
</g>
<defs>
<linearGradient id="paint0_linear_1_162" x1="5.46493e-06" y1="84.9998" x2="56.5633" y2="-11.4041" gradientUnits="userSpaceOnUse">
<stop stop-color="#602AD2"/>
<stop offset="1" stop-color="#1D1355"/>
</linearGradient>
<linearGradient id="paint1_linear_1_162" x1="51.2519" y1="6.30556" x2="11.4549" y2="71.059" gradientUnits="userSpaceOnUse">
<stop offset="0.0847715" stop-opacity="0"/>
<stop offset="0.299135"/>
</linearGradient>
<linearGradient id="paint2_linear_1_162" x1="24.7484" y1="6.30545" x2="64.5452" y2="71.0589" gradientUnits="userSpaceOnUse">
<stop offset="0.0904884" stop-opacity="0"/>
<stop offset="0.299135"/>
</linearGradient>
<linearGradient id="paint3_linear_1_162" x1="73.1725" y1="65.8285" x2="30.7749" y2="3.01768" gradientUnits="userSpaceOnUse">
<stop offset="0.00851842" stop-opacity="0"/>
<stop offset="0.173492"/>
</linearGradient>
<linearGradient id="paint4_linear_1_162" x1="2.82785" y1="65.8282" x2="45.2256" y2="3.01737" gradientUnits="userSpaceOnUse">
<stop offset="0.00851842" stop-opacity="0"/>
<stop offset="0.173492"/>
</linearGradient>
<linearGradient id="paint5_linear_1_162" x1="0.000323109" y1="43.2155" x2="76.0002" y2="43.2155" gradientUnits="userSpaceOnUse">
<stop offset="0.0372058" stop-opacity="0"/>
<stop offset="0.107364" stop-opacity="0.3"/>
<stop offset="0.179472"/>
<stop offset="0.822593"/>
<stop offset="0.891777" stop-opacity="0.3"/>
<stop offset="0.961935" stop-opacity="0"/>
</linearGradient>
<linearGradient id="paint6_linear_1_162" x1="10.1786" y1="73.6895" x2="51.7367" y2="3.02695" gradientUnits="userSpaceOnUse">
<stop stop-color="#602AD2"/>
<stop offset="1" stop-color="#1D1355"/>
</linearGradient>
<linearGradient id="paint7_linear_1_162" x1="31.9494" y1="59.4173" x2="44.4304" y2="25.7232" gradientUnits="userSpaceOnUse">
<stop stop-color="#23D1AE"/>
<stop offset="1" stop-color="#7EFF33"/>
</linearGradient>
<clipPath id="clip0_1_162">
<rect width="76" height="85" fill="white"/>
</clipPath>
</defs>
</svg>
