<svg width="207" height="40" viewBox="0 0 207 40" fill="none" xmlns="http://www.w3.org/2000/svg">
  <path d="M93.1397 20.0889C93.1397 28.0324 88.3419 31.7951 82.3449 31.7951H78.6744V27.0499H82.0554C85.6743 27.0499 88.0834 25.0849 88.0834 20.1202C88.0834 15.1554 85.8087 12.8038 81.952 12.8038C78.0953 12.8038 75.5827 15.1137 75.5827 20.068V40H70.6198V8.64389H75.6241V11.33H76.3376C77.1154 10.2842 78.1293 9.44156 79.2949 8.87245C80.4605 8.30333 81.7437 8.02433 83.0376 8.05856C88.5591 8.05856 93.1805 12.1034 93.1805 20.1411L93.1397 20.0889ZM60.3111 18.0507L56.9818 17.7162C54.3658 17.4759 52.9803 16.7547 52.9803 15.2078C52.9803 13.3787 54.7484 12.323 57.2713 12.323C59.7941 12.323 61.5519 13.5772 61.6966 15.3541H66.4839C66.2977 10.8283 62.8133 8.03767 57.2919 8.03767C51.7706 8.03767 47.9863 11.0269 47.9863 15.4063C47.9863 19.0646 50.2714 21.4267 55.4618 21.9493L58.8429 22.2942C60.9108 22.4823 62.2653 22.9109 62.2653 24.8863C62.2653 26.6737 60.9832 27.9697 57.6021 27.9697C54.5002 27.9697 52.9493 26.5378 52.4323 24.625H47.2624C47.7795 29.0044 51.3983 32.4013 57.6538 32.4013C63.506 32.4013 67.3214 29.2658 67.3214 24.6459C67.3214 20.5592 64.6537 18.4897 60.3628 18.0507H60.3111ZM112.599 24.625C112.126 25.6326 111.367 26.4749 110.419 27.0446C109.47 27.6142 108.376 27.8853 107.274 27.8233C103.613 27.8233 100.894 25.4194 100.894 20.2143C100.894 15.26 103.417 12.5216 107.326 12.5216C108.048 12.4591 108.777 12.5497 109.463 12.7874C110.15 13.0252 110.779 13.4051 111.313 13.9027C111.846 14.4003 112.27 15.0048 112.559 15.6777C112.849 16.3504 112.996 17.0768 112.991 17.8103H103.986V21.4686H117.892V19.0646C117.892 12.3752 113.519 8.03767 107.274 8.03767C101.463 8.03767 95.9006 12.0303 95.9006 20.2143C95.9006 28.3982 101.463 32.4013 107.274 32.4013C109.608 32.4812 111.9 31.7542 113.77 30.3406C115.64 28.9268 116.977 26.9108 117.561 24.625H112.599ZM34.0174 8.03767C28.5478 8.03767 24.4532 10.9329 23.9776 15.3541H29.2612C29.6438 13.7236 31.1223 12.5216 33.9243 12.5216C37.5432 12.5216 38.7427 14.4448 38.7427 16.7964V24.74C37.925 25.7847 36.8917 26.6363 35.7148 27.2357C34.5379 27.835 33.2459 28.1676 31.9288 28.2101C29.4473 28.2101 27.7929 27.0081 27.7929 24.8446C27.7929 22.681 29.1268 21.4686 31.691 21.4686H35.6924V17.8103H31.5566C25.8388 17.8103 22.6438 20.7056 22.6438 25.1268C22.6438 29.3076 25.7457 32.4432 30.8328 32.4432C33.4521 32.3916 35.9871 31.4983 38.0705 29.8929H38.784V31.8683H43.7366V16.2843C43.7366 10.5566 39.88 8.00622 33.9243 8.00622L34.0174 8.03767ZM0 31.7951H5.00432V0.0208886H0V31.7951ZM20.9895 8.59156H14.8994L7.54794 18.2598V21.2909L15.0234 31.7429H21.2273L12.4903 19.7334L20.9895 8.59156ZM201.54 8.59156L197.404 17.779C196.471 19.6438 195.724 21.5974 195.171 23.6112H194.458C193.873 21.6178 193.108 19.6829 192.173 17.8312L188.037 8.59156H182.515L192.141 29.433L187.375 39.885H192.71L207 8.52889L201.54 8.59156ZM181.481 8.59156H175.361L168.071 18.2598V21.2909L175.547 31.7429H181.75L172.982 19.7334L181.481 8.59156ZM150.173 17.9984L146.844 17.664C144.228 17.4236 142.842 16.7023 142.842 15.1554C142.842 13.3263 144.6 12.2707 147.134 12.2707C149.666 12.2707 151.414 13.525 151.558 15.3018H156.367C156.181 10.7761 152.696 7.98533 147.174 7.98533C141.654 7.98533 137.868 10.9747 137.868 15.3541C137.868 19.0123 140.164 21.3744 145.355 21.8971L148.736 22.242C150.804 22.4301 152.158 22.8587 152.158 24.8341C152.158 26.6213 150.876 27.9174 147.495 27.9174C144.394 27.9174 142.842 26.4856 142.325 24.5728H137.155C137.672 28.9522 141.291 32.3491 147.547 32.3491C153.399 32.3491 157.215 29.2134 157.215 24.5937C157.215 20.5069 154.546 18.4374 150.256 17.9984H150.173ZM160.595 31.7742H165.6V0H160.595V31.7742ZM127.488 11.2778H126.775V8.59156H121.77V31.7951H126.775V19.6603C126.775 15.4794 128.667 13.1069 132.388 13.1069H135.563V8.00622H133.692C130.238 8.00622 128.77 9.32322 127.488 11.2778Z" fill="white"/>
</svg>
