<svg width="22" height="32" viewBox="0 0 22 32" fill="none" xmlns="http://www.w3.org/2000/svg">
  <path opacity="0.8" d="M8.20312 14.7344C8.32031 15.2812 7.73438 15.7109 7.26562 15.4375L5.66406 14.4219L3.67188 17.625C3.16406 18.4453 3.75 19.5 4.76562 19.5H6.79688C7.03125 19.5 7.26562 19.7344 7.26562 19.9688V21.5312C7.26562 21.8047 7.03125 22 6.79688 22H4.76562C1.79688 22 0 18.7578 1.5625 16.2969L3.55469 13.0938L1.95312 12.1172C1.48438 11.8047 1.60156 11.1016 2.14844 10.9844L6.44531 9.96875C6.79688 9.89062 7.14844 10.125 7.22656 10.4375L8.20312 14.7344ZM12.0703 7.58594C11.5625 6.84375 10.4297 6.80469 9.92188 7.625L9.21875 8.71875C9.10156 8.95312 8.78906 9.03125 8.59375 8.875L7.26562 8.05469C7.03125 7.89844 6.99219 7.625 7.10938 7.39062L7.8125 6.29688C9.29688 3.91406 12.6953 3.95312 14.1797 6.29688L15.7812 8.875L17.3828 7.85938C17.8516 7.58594 18.4375 8.01562 18.3203 8.52344L17.3047 12.8594C17.2656 13.1719 16.9141 13.4062 16.5625 13.3281L12.2656 12.3125C11.7188 12.1953 11.6016 11.4922 12.0703 11.1797L13.6719 10.2031L12.0703 7.58594ZM20.4297 16.2969C21.9922 18.7969 20.1953 22 17.2266 22H13.5156V23.875C13.5156 24.4609 12.8125 24.7344 12.4219 24.3438L9.29688 21.2188C9.0625 20.9844 9.0625 20.5547 9.29688 20.3203L12.4219 17.1953C12.8125 16.8047 13.5156 17.0781 13.5156 17.6641V19.5391H17.2266C18.2422 19.5391 18.8281 18.4453 18.3203 17.625L17.2266 15.8672C17.1094 15.6719 17.1484 15.3594 17.3828 15.2422L18.7109 14.4219C18.9062 14.2656 19.2188 14.3438 19.3359 14.5781L20.4297 16.2969Z" fill="#3B82F6"/>
</svg>
