<svg width="80" height="15" viewBox="0 0 80 15" fill="none" xmlns="http://www.w3.org/2000/svg">
  <path d="M7.20703 0.65625C7.53516 0 8.46484 0.0273438 8.76562 0.65625L10.5703 4.29297L14.5625 4.86719C15.2734 4.97656 15.5469 5.85156 15.0273 6.37109L12.1562 9.1875L12.8398 13.1523C12.9492 13.8633 12.1836 14.4102 11.5547 14.082L8 12.1953L4.41797 14.082C3.78906 14.4102 3.02344 13.8633 3.13281 13.1523L3.81641 9.1875L0.945312 6.37109C0.425781 5.85156 0.699219 4.97656 1.41016 4.86719L5.42969 4.29297L7.20703 0.65625Z" fill="#FBBF24"/>
  <path d="M23.207 0.65625C23.5352 0 24.4648 0.0273438 24.7656 0.65625L26.5703 4.29297L30.5625 4.86719C31.2734 4.97656 31.5469 5.85156 31.0273 6.37109L28.1562 9.1875L28.8398 13.1523C28.9492 13.8633 28.1836 14.4102 27.5547 14.082L24 12.1953L20.418 14.082C19.7891 14.4102 19.0234 13.8633 19.1328 13.1523L19.8164 9.1875L16.9453 6.37109C16.4258 5.85156 16.6992 4.97656 17.4102 4.86719L21.4297 4.29297L23.207 0.65625Z" fill="#FBBF24"/>
  <path d="M39.207 0.65625C39.5352 0 40.4648 0.0273438 40.7656 0.65625L42.5703 4.29297L46.5625 4.86719C47.2734 4.97656 47.5469 5.85156 47.0273 6.37109L44.1562 9.1875L44.8398 13.1523C44.9492 13.8633 44.1836 14.4102 43.5547 14.082L40 12.1953L36.418 14.082C35.7891 14.4102 35.0234 13.8633 35.1328 13.1523L35.8164 9.1875L32.9453 6.37109C32.4258 5.85156 32.6992 4.97656 33.4102 4.86719L37.4297 4.29297L39.207 0.65625Z" fill="#FBBF24"/>
  <path d="M55.207 0.65625C55.5352 0 56.4648 0.0273438 56.7656 0.65625L58.5703 4.29297L62.5625 4.86719C63.2734 4.97656 63.5469 5.85156 63.0273 6.37109L60.1562 9.1875L60.8398 13.1523C60.9492 13.8633 60.1836 14.4102 59.5547 14.082L56 12.1953L52.418 14.082C51.7891 14.4102 51.0234 13.8633 51.1328 13.1523L51.8164 9.1875L48.9453 6.37109C48.4258 5.85156 48.6992 4.97656 49.4102 4.86719L53.4297 4.29297L55.207 0.65625Z" fill="#FBBF24"/>
  <path d="M78.0625 4.86719C78.7734 4.97656 79.0742 5.85156 78.5547 6.37109L75.6562 9.1875L76.3398 13.1523C76.4219 13.7266 75.9844 14.1641 75.4648 14.1641C75.3281 14.1641 75.1914 14.1367 75.0547 14.082L71.4727 12.1953L67.918 14.082C67.7812 14.1367 67.6445 14.1641 67.5078 14.1641C66.9883 14.1641 66.5234 13.7266 66.6328 13.1523L67.3164 9.1875L64.418 6.37109C63.8984 5.85156 64.1992 4.97656 64.9102 4.86719L68.9023 4.29297L70.707 0.65625C70.8711 0.328125 71.1719 0.164062 71.4727 0.164062C71.8008 0.164062 72.1016 0.328125 72.2656 0.65625L74.0703 4.29297L78.0625 4.86719ZM74.7266 8.23047L76.9961 6.04297L73.8789 5.57812L73.1953 5.49609L72.8945 4.86719L71.5 2.05078L71.4727 10.7188L72.1016 11.0469L74.8906 12.4961L74.3438 9.40625L74.2344 8.72266L74.7266 8.23047Z" fill="#FBBF24"/>
</svg>
